<svg xmlns="http://www.w3.org/2000/svg" version="1.0" width="992.709" height="1000.0">
<!-- X Coordinate transform: fx(x)=(x+4.323764)*114.79685-->
<!-- Y Coordinate transform: fy(y)=(4.3555202-y)*114.79685 -->
<!-- Flac geometry view -->
<g style="opacity:1.0;fill:#5a5aff;fill-opacity:1;stroke:#000000;stroke-width:4;stroke-opacity:0.80;">  <!-- areaindex 0 -->
<polygon points=" 382.395,37.647 496.354,23.81 610.314,37.647 496.354,51.484" />
<polygon points=" 104.457,770.507 51.109,668.859 23.636,557.398 76.985,659.046" />
<polygon points=" 23.636,557.398 23.636,442.602 51.109,331.141 51.109,445.937" />
<polygon points=" 76.985,659.046 171.461,724.258 247.585,810.185 153.109,744.973" />
<polygon points=" 812.127,143.566 888.252,229.493 941.6,331.141 865.476,245.214" />
<polygon points=" 610.314,37.647 717.651,78.354 812.127,143.566 704.79,102.859" />
<polygon points=" 888.252,770.507 812.127,856.434 717.651,921.646 793.776,835.719" />
<polygon points=" 717.651,921.646 771,819.998 847.124,734.072 793.776,835.719" />
<polygon points=" 717.651,921.646 610.314,962.353 496.354,976.191 603.691,935.483" />
<polygon points=" 382.395,37.647 287.919,102.859 180.582,143.566 275.058,78.354" />
<polygon points=" 76.985,659.046 104.457,547.585 157.806,445.937 130.333,557.398" />
<polygon points=" 941.6,331.141 969.073,442.602 969.073,557.398 941.6,445.937" />
<polygon points=" 275.058,921.646 389.018,935.483 496.354,976.191 382.395,962.353" />
</g>
<g style="opacity:1.0;fill:#5abf5a;fill-opacity:1;stroke:#000000;stroke-width:4;stroke-opacity:0.80;">  <!-- areaindex 1 -->
<polygon points=" 104.457,770.507 76.985,659.046 153.109,744.973 180.582,856.434" />
<polygon points=" 51.109,331.141 104.457,229.493 104.457,344.29 51.109,445.937" />
<polygon points=" 941.6,331.141 834.263,290.433 758.139,204.506 865.476,245.214" />
<polygon points=" 888.252,770.507 793.776,835.719 847.124,734.072 941.6,668.859" />
<polygon points=" 76.985,659.046 190.945,672.883 285.42,738.095 171.461,724.258" />
<polygon points=" 941.6,668.859 914.128,557.398 941.6,445.937 969.073,557.398" />
<polygon points=" 233.931,360.011 341.267,319.303 455.227,333.14 347.89,373.848" />
<polygon points=" 771,819.998 657.04,833.835 549.703,793.128 663.663,779.291" />
<polygon points=" 590.83,116.696 644.179,218.344 644.179,333.14 590.83,231.493" />
<polygon points=" 401.879,231.493 496.354,296.705 549.703,398.352 455.227,333.14" />
<polygon points=" 636.19,667.83 663.663,556.369 739.788,470.442 712.315,581.903" />
<polygon points=" 758.139,319.303 663.663,384.515 549.703,398.352 644.179,333.14" />
<polygon points=" 442.366,610.913 518.491,524.987 625.828,484.279 549.703,570.206" />
</g>
<g style="opacity:1.0;fill:#5abfbf;fill-opacity:1;stroke:#000000;stroke-width:4;stroke-opacity:0.80;">  <!-- areaindex 2 -->
<polygon points=" 610.314,37.647 704.79,102.859 590.83,116.696 496.354,51.484" />
<polygon points=" 23.636,557.398 51.109,445.937 104.457,547.585 76.985,659.046" />
<polygon points=" 104.457,229.493 180.582,143.566 180.582,258.363 104.457,344.29" />
<polygon points=" 180.582,856.434 153.109,744.973 247.585,810.185 275.058,921.646" />
<polygon points=" 812.127,143.566 865.476,245.214 758.139,204.506 704.79,102.859" />
<polygon points=" 496.354,976.191 389.018,935.483 496.354,894.776 603.691,935.483" />
<polygon points=" 758.139,204.506 834.263,290.433 834.263,405.23 758.139,319.303" />
<polygon points=" 247.585,810.185 171.461,724.258 285.42,738.095 361.545,824.022" />
<polygon points=" 287.919,217.656 382.395,152.444 496.354,166.281 401.879,231.493" />
<polygon points=" 389.018,935.483 442.366,833.835 549.703,793.128 496.354,894.776" />
<polygon points=" 389.018,935.483 361.545,824.022 414.894,722.374 442.366,833.835" />
<polygon points=" 834.263,405.23 806.791,516.691 712.315,581.903 739.788,470.442" />
<polygon points=" 549.703,570.206 625.828,484.279 739.788,470.442 663.663,556.369" />
</g>
<g style="opacity:1.0;fill:#bf5a5a;fill-opacity:1;stroke:#000000;stroke-width:4;stroke-opacity:0.80;">  <!-- areaindex 3 -->
<polygon points=" 51.109,445.937 104.457,344.29 157.806,445.937 104.457,547.585" />
<polygon points=" 717.651,921.646 603.691,935.483 657.04,833.835 771,819.998" />
<polygon points=" 382.395,37.647 382.395,152.444 287.919,217.656 287.919,102.859" />
<polygon points=" 496.354,51.484 590.83,116.696 590.83,231.493 496.354,166.281" />
<polygon points=" 287.919,217.656 401.879,231.493 455.227,333.14 341.267,319.303" />
<polygon points=" 847.124,734.072 771,819.998 743.527,708.537 819.652,622.61" />
<polygon points=" 157.806,445.937 233.931,360.011 347.89,373.848 271.766,459.775" />
<polygon points=" 914.128,557.398 819.652,622.61 712.315,581.903 806.791,516.691" />
<polygon points=" 771,819.998 663.663,779.291 636.19,667.83 743.527,708.537" />
<polygon points=" 338.769,636.448 366.242,524.987 442.366,610.913 414.894,722.374" />
<polygon points=" 347.89,373.848 455.227,333.14 549.703,398.352 442.366,439.06" />
<polygon points=" 414.894,722.374 442.366,610.913 549.703,570.206 522.231,681.667" />
<polygon points=" 549.703,398.352 663.663,384.515 739.788,470.442 625.828,484.279" />
</g>
<g style="opacity:1.0;fill:#af5aaf;fill-opacity:1;stroke:#000000;stroke-width:4;stroke-opacity:0.80;">  <!-- areaindex 4 -->
<polygon points=" 275.058,921.646 247.585,810.185 361.545,824.022 389.018,935.483" />
<polygon points=" 704.79,102.859 758.139,204.506 644.179,218.344 590.83,116.696" />
<polygon points=" 941.6,668.859 847.124,734.072 819.652,622.61 914.128,557.398" />
<polygon points=" 180.582,143.566 287.919,102.859 287.919,217.656 180.582,258.363" />
<polygon points=" 941.6,331.141 941.6,445.937 834.263,405.23 834.263,290.433" />
<polygon points=" 104.457,344.29 180.582,258.363 233.931,360.011 157.806,445.937" />
<polygon points=" 76.985,659.046 130.333,557.398 244.293,571.236 190.945,672.883" />
<polygon points=" 496.354,166.281 590.83,231.493 496.354,296.705 401.879,231.493" />
<polygon points=" 361.545,824.022 285.42,738.095 338.769,636.448 414.894,722.374" />
<polygon points=" 244.293,571.236 271.766,459.775 366.242,524.987 338.769,636.448" />
<polygon points=" 819.652,622.61 743.527,708.537 636.19,667.83 712.315,581.903" />
<polygon points=" 636.19,667.83 522.231,681.667 549.703,570.206 663.663,556.369" />
<polygon points=" 442.366,439.06 549.703,398.352 625.828,484.279 518.491,524.987" />
</g>
<g style="opacity:1.0;fill:#bfbf5a;fill-opacity:1;stroke:#000000;stroke-width:4;stroke-opacity:0.80;">  <!-- areaindex 5 -->
<polygon points=" 382.395,37.647 496.354,51.484 496.354,166.281 382.395,152.444" />
<polygon points=" 180.582,258.363 287.919,217.656 341.267,319.303 233.931,360.011" />
<polygon points=" 157.806,445.937 271.766,459.775 244.293,571.236 130.333,557.398" />
<polygon points=" 603.691,935.483 496.354,894.776 549.703,793.128 657.04,833.835" />
<polygon points=" 285.42,738.095 190.945,672.883 244.293,571.236 338.769,636.448" />
<polygon points=" 941.6,445.937 914.128,557.398 806.791,516.691 834.263,405.23" />
<polygon points=" 758.139,204.506 758.139,319.303 644.179,333.14 644.179,218.344" />
<polygon points=" 834.263,405.23 739.788,470.442 663.663,384.515 758.139,319.303" />
<polygon points=" 590.83,231.493 644.179,333.14 549.703,398.352 496.354,296.705" />
<polygon points=" 271.766,459.775 347.89,373.848 442.366,439.06 366.242,524.987" />
<polygon points=" 366.242,524.987 442.366,439.06 518.491,524.987 442.366,610.913" />
<polygon points=" 549.703,793.128 522.231,681.667 636.19,667.83 663.663,779.291" />
<polygon points=" 549.703,793.128 442.366,833.835 414.894,722.374 522.231,681.667" />
</g>
<g style="stroke:#000000;stroke-width:4;stroke-opacity:0.50;fill-opacity:0.0">
<!-- Group: <Default>-->
<polyline points=" 496.354,23.81 610.314,37.647 496.354,51.484 382.395,37.647 275.058,78.354 180.582,143.566 104.457,229.493 51.109,331.141 23.636,442.602 23.636,557.398 51.109,668.859 104.457,770.507 180.582,856.434 275.058,921.646 382.395,962.353 496.354,976.191 610.314,962.353 717.651,921.646 812.127,856.434 888.252,770.507 941.6,668.859 969.073,557.398 969.073,442.602 941.6,331.141 888.252,229.493 812.127,143.566 717.651,78.354 610.314,37.647" />
<polyline points=" 496.354,23.81 382.395,37.647" />
<polyline points=" 23.636,557.398 76.985,659.046 104.457,770.507" />
<polyline points=" 51.109,331.141 51.109,445.937 23.636,557.398" />
<polyline points=" 51.109,445.937 104.457,344.29 180.582,258.363 287.919,217.656 382.395,152.444 496.354,166.281 590.83,231.493 644.179,333.14" />
<polyline points=" 104.457,344.29 104.457,229.493" />
<polyline points=" 76.985,659.046 153.109,744.973 180.582,856.434" />
<polyline points=" 941.6,331.141 865.476,245.214 812.127,143.566" />
<polyline points=" 610.314,37.647 704.79,102.859 812.127,143.566" />
<polyline points=" 275.058,921.646 247.585,810.185 171.461,724.258 76.985,659.046" />
<polyline points=" 361.545,824.022 247.585,810.185 153.109,744.973" />
<polyline points=" 704.79,102.859 758.139,204.506 834.263,290.433 941.6,331.141" />
<polyline points=" 644.179,218.344 758.139,204.506 865.476,245.214" />
<polyline points=" 717.651,921.646 793.776,835.719 888.252,770.507" />
<polyline points=" 496.354,976.191 603.691,935.483 717.651,921.646" />
<polyline points=" 941.6,668.859 847.124,734.072 771,819.998 717.651,921.646" />
<polyline points=" 847.124,734.072 793.776,835.719" />
<polyline points=" 382.395,37.647 287.919,102.859 180.582,143.566" />
<polyline points=" 969.073,557.398 941.6,445.937 834.263,405.23 739.788,470.442 625.828,484.279 549.703,398.352 455.227,333.14 347.89,373.848 233.931,360.011 180.582,258.363 180.582,143.566" />
<polyline points=" 455.227,333.14 341.267,319.303 287.919,217.656 287.919,102.859" />
<polyline points=" 496.354,51.484 590.83,116.696 644.179,218.344 644.179,333.14 549.703,398.352 442.366,439.06 366.242,524.987 338.769,636.448 285.42,738.095" />
<polyline points=" 590.83,116.696 704.79,102.859" />
<polyline points=" 341.267,319.303 233.931,360.011 157.806,445.937 104.457,547.585 76.985,659.046" />
<polyline points=" 104.457,547.585 51.109,445.937" />
<polyline points=" 941.6,445.937 941.6,331.141" />
<polyline points=" 496.354,976.191 389.018,935.483 275.058,921.646" />
<polyline points=" 382.395,152.444 382.395,37.647" />
<polyline points=" 104.457,344.29 157.806,445.937 130.333,557.398 76.985,659.046" />
<polyline points=" 287.919,217.656 401.879,231.493 496.354,166.281 496.354,51.484" />
<polyline points=" 389.018,935.483 496.354,894.776 603.691,935.483" />
<polyline points=" 389.018,935.483 361.545,824.022 285.42,738.095 190.945,672.883 76.985,659.046" />
<polyline points=" 285.42,738.095 171.461,724.258" />
<polyline points=" 347.89,373.848 271.766,459.775 244.293,571.236 190.945,672.883" />
<polyline points=" 130.333,557.398 244.293,571.236 338.769,636.448 414.894,722.374 442.366,833.835 389.018,935.483" />
<polyline points=" 442.366,833.835 549.703,793.128 657.04,833.835 771,819.998" />
<polyline points=" 657.04,833.835 603.691,935.483" />
<polyline points=" 941.6,445.937 914.128,557.398 941.6,668.859" />
<polyline points=" 361.545,824.022 414.894,722.374 522.231,681.667 636.19,667.83 712.315,581.903 806.791,516.691 834.263,405.23 834.263,290.433" />
<polyline points=" 414.894,722.374 442.366,610.913 366.242,524.987 271.766,459.775 157.806,445.937" />
<polyline points=" 590.83,231.493 590.83,116.696" />
<polyline points=" 625.828,484.279 549.703,570.206 522.231,681.667 549.703,793.128 496.354,894.776" />
<polyline points=" 914.128,557.398 819.652,622.61 743.527,708.537 771,819.998" />
<polyline points=" 712.315,581.903 819.652,622.61 847.124,734.072" />
<polyline points=" 834.263,405.23 758.139,319.303 758.139,204.506" />
<polyline points=" 549.703,398.352 496.354,296.705 401.879,231.493" />
<polyline points=" 496.354,296.705 590.83,231.493" />
<polyline points=" 518.491,524.987 442.366,439.06 347.89,373.848" />
<polyline points=" 549.703,793.128 663.663,779.291 771,819.998" />
<polyline points=" 636.19,667.83 743.527,708.537" />
<polyline points=" 739.788,470.442 663.663,556.369 636.19,667.83 663.663,779.291" />
<polyline points=" 806.791,516.691 914.128,557.398" />
<polyline points=" 455.227,333.14 401.879,231.493" />
<polyline points=" 625.828,484.279 518.491,524.987 442.366,610.913" />
<polyline points=" 644.179,333.14 758.139,319.303" />
<polyline points=" 549.703,398.352 663.663,384.515 758.139,319.303" />
<polyline points=" 663.663,556.369 549.703,570.206 442.366,610.913" />
<polyline points=" 739.788,470.442 712.315,581.903" />
<polyline points=" 739.788,470.442 663.663,384.515" />
</g>
</svg>
